PathFileType	4	(X/Y/Z)	SUBJ59_2_walk_RCNL2025.trc
DataRate	CameraRate	NumFrames	NumMarkers	Units	OrigDataRate	OrigDataStartFrame	OrigNumFrames
100	100	14	25	mm	100	205	327
Frame#	Time	R_Shoulder			L_Shoulder			C7			J_Notch			R_Elbow			L_Elbow			R_Wrist			L_Wrist			R_Asis			L_Asis			Sacral			Thoracic			Sternum			R_Thigh_Lateral			R_Knee_Lateral			R_Shank_Lateral			R_Ankle_Lateral			R_Heel			R_Toe			L_Thigh_Lateral			L_Knee_Lateral			L_Shank_Lateral			L_Ankle_Lateral			L_Heel			L_Toe		
		X1	Y1	Z1	X2	Y2	Z2	X3	Y3	Z3	X4	Y4	Z4	X5	Y5	Z5	X6	Y6	Z6	X7	Y7	Z7	X8	Y8	Z8	X9	Y9	Z9	X10	Y10	Z10	X11	Y11	Z11	X12	Y12	Z12	X13	Y13	Z13	X14	Y14	Z14	X15	Y15	Z15	X16	Y16	Z16	X17	Y17	Z17	X18	Y18	Z18	X19	Y19	Z19	X20	Y20	Z20	X21	Y21	Z21	X22	Y22	Z22	X23	Y23	Z23	X24	Y24	Z24	X25	Y25	Z25
205	2.04000000	80.807114	1450.789917	384.238251	61.878555	1464.268066	-12.591556	-24.475897	1545.801392	187.608307	136.116653	1444.750854	181.763107	52.614712	1141.057007	489.791870	3.367886	1126.900146	-106.731682	129.259666	870.916016	494.479507	32.595609	860.179993	-93.988800	112.714973	978.553345	313.611877	127.088768	987.835022	88.192711	-97.606148	1011.433777	184.012604	-94.990814	1332.068115	177.617706	184.113617	1247.841187	183.809952	40.692837	586.063965	413.345215	22.489458	491.361145	361.119385	-109.988701	348.995178	432.387726	-295.430664	195.426804	311.408661	-323.425598	220.605057	264.725800	-214.915665	64.407265	262.230560	115.395973	604.400818	6.662183	142.634048	500.083527	66.813263	135.593323	301.659546	14.825446	109.368034	77.869453	95.358612	60.561321	56.688320	147.950851	266.356354	40.193596	139.998825
206	2.05000000	90.336304	1451.881470	384.406830	73.800407	1465.739624	-12.773092	-13.628074	1547.275879	186.954437	146.909210	1446.197632	181.737000	59.684799	1141.833984	489.092010	19.498323	1128.076904	-107.969353	132.765892	870.669067	494.320908	52.010613	861.768677	-94.307384	123.698318	979.823547	312.887238	137.227600	988.784851	87.030930	-87.160728	1012.666443	183.610001	-84.076042	1333.545410	176.243591	194.890976	1249.263306	183.712448	59.567337	588.141724	413.985229	44.912834	493.067078	362.099213	-85.951202	350.195892	433.023651	-272.051056	197.321838	311.640289	-300.616333	221.711517	264.697083	-189.391891	67.543968	264.218353	120.597069	604.647034	6.116910	146.631622	499.885651	66.314995	137.947495	301.423889	14.525321	109.457832	77.864853	95.383965	60.583466	56.815979	147.963257	266.391235	40.215843	139.957153
207	2.06000000	99.778152	1452.936035	384.692871	85.495316	1467.406128	-12.875517	-2.880086	1548.775879	186.473572	157.607269	1447.669678	181.804688	66.552971	1142.593750	488.425934	35.767624	1129.483643	-109.131218	136.178909	870.510468	494.127625	71.630611	863.661041	-94.588226	134.694443	981.317017	312.190277	147.308472	989.753357	85.868324	-76.734802	1013.999146	183.280151	-73.256172	1335.047729	174.980988	205.543564	1250.707031	183.596909	78.316170	590.585876	414.523926	67.174484	495.201416	362.932892	-61.930492	351.607941	433.409241	-247.555023	197.946396	311.658264	-276.849823	221.385452	264.423584	-161.974609	69.958031	265.968018	125.661026	604.898682	5.670913	150.422165	499.698486	65.922150	140.395035	301.189178	14.265347	109.549095	77.872200	95.413139	60.606651	56.942978	147.984756	266.435486	40.237377	139.930008
208	2.07000000	109.156158	1453.972168	385.052399	96.979607	1469.267212	-12.911264	7.752822	1550.278931	186.141800	168.212189	1449.158325	181.959915	73.243149	1143.360352	487.773193	52.127960	1131.129639	-110.213837	139.505943	870.458649	493.901474	91.425400	865.875427	-94.833641	145.701187	983.010559	311.473694	157.355942	990.752502	84.707573	-66.309113	1015.435974	183.022476	-62.522202	1336.548706	173.839111	216.081604	1252.165283	183.448822	96.986794	593.293213	414.936981	89.210808	497.667511	363.595062	-37.931664	353.055237	433.582947	-221.989410	197.273102	311.514069	-252.154785	219.632278	263.981598	-132.843750	71.597275	267.436768	130.608749	605.156128	5.334660	153.992355	499.528595	65.647476	142.792648	300.981506	14.068572	109.641777	77.893822	95.458466	60.630692	57.069893	148.019440	266.483795	40.245087	139.918884
209	2.08000000	118.486343	1454.995972	385.449585	108.281967	1471.302856	-12.887355	18.264198	1551.763916	185.933426	178.721741	1450.651001	182.198273	79.784241	1144.145752	487.121185	68.515511	1133.004883	-111.222137	142.757584	870.515076	493.644028	111.372864	868.414917	-95.050812	156.712296	984.857788	310.710846	167.384232	991.782898	83.560066	-55.874302	1016.959351	182.841660	-51.867004	1338.020264	172.819855	226.516251	1253.627563	183.260345	115.594795	596.171997	415.204163	110.948784	500.377472	364.054871	-13.941370	354.361450	433.573547	-195.398926	195.316193	311.250183	-226.543289	216.480469	263.436371	-102.160576	72.460060	268.612732	135.444839	605.417786	5.111753	157.324890	499.383667	65.495331	145.006271	300.821503	13.952541	109.735832	77.930252	95.530060	60.655800	57.198322	148.067963	266.530396	40.228973	139.920166
210	2.09000000	127.778358	1456.001709	385.859619	119.438828	1473.476196	-12.804057	28.656069	1553.210938	185.826004	189.134277	1452.132202	182.514099	86.208763	1144.948486	486.464813	84.858971	1135.082642	-112.170334	145.949879	870.666534	493.357132	131.451172	871.266602	-95.246292	167.719513	986.801025	309.895538	177.404739	992.836609	82.436958	-45.430088	1018.532959	182.745956	-41.283585	1339.434814	171.918655	236.861389	1255.081787	183.029922	134.121872	599.147888	415.311066	132.308273	503.258514	364.284241	10.044856	355.398926	433.405212	-167.826324	192.128281	310.899750	-200.007416	211.979004	262.838440	-70.070755	72.592369	269.513367	140.160797	605.681274	4.999920	160.406372	499.269318	65.463570	146.941727	300.719269	13.925346	109.830002	77.982292	95.633438	60.685375	57.330750	148.129684	266.574066	40.188702	139.931183
211	2.10000000	137.037140	1456.974243	386.269867	130.488327	1475.738037	-12.656062	38.935959	1554.599121	185.800964	199.452591	1453.585815	182.897278	92.550148	1145.755493	485.804688	101.090187	1137.324097	-113.081459	149.106670	870.887451	493.043396	151.632393	874.402191	-95.422230	178.713074	988.780762	309.036835	187.428497	993.895996	81.347137	-34.983131	1020.107788	182.743896	-30.764153	1340.765259	171.125702	247.134338	1256.513672	182.762360	152.519211	602.163940	415.249786	153.209793	506.251282	364.268829	34.011253	356.103241	433.099701	-139.309326	187.793549	310.489471	-172.524475	206.197571	262.224274	-36.708351	72.079903	270.179901	144.741867	605.944214	4.992304	163.232986	499.185516	65.544968	148.564178	300.675720	13.982915	109.920525	78.051788	95.768150	60.726875	57.471649	148.201569	266.618103	40.131634	139.953232
212	2.11000000	146.265442	1457.891113	386.678680	141.465332	1478.030884	-12.434899	49.114254	1555.905273	185.842896	209.684631	1454.994263	183.334076	98.838860	1146.543579	485.145294	117.153145	1139.681885	-113.983910	152.259106	871.141907	492.706635	171.882629	877.780579	-95.575962	189.683502	990.740234	308.152985	197.462646	994.931580	80.300842	-24.543291	1021.629883	182.839172	-20.300680	1341.985229	170.427322	257.355530	1257.905151	182.468918	170.714020	605.177063	415.020508	173.585434	509.304199	364.012299	57.930717	356.459686	432.674866	-109.877975	182.419464	310.042175	-144.069916	199.230545	261.619080	-2.202934	71.036613	270.670044	149.177124	606.204224	5.077455	165.815414	499.127991	65.726494	149.896774	300.685486	14.110201	110.000694	78.140381	95.927895	60.790520	57.628185	148.276688	266.666870	40.066013	139.989441
213	2.12000000	155.466675	1458.724243	387.092010	152.398117	1480.294556	-12.131279	59.202671	1557.103638	185.940277	219.841965	1456.337158	183.810867	105.101349	1147.281616	484.493652	133.008972	1142.101562	-114.906021	155.441422	871.387146	492.350677	192.165764	881.352570	-95.701527	200.623398	992.626953	307.266235	207.506775	995.902039	79.311996	-14.118660	1023.047180	183.026932	-9.885653	1343.069824	169.808151	267.547119	1259.235352	182.165848	188.620071	608.153259	414.631226	193.385971	512.366333	363.533722	81.782448	356.476440	432.145233	-79.556892	176.131088	309.577637	-114.627625	191.197769	261.039490	33.312607	69.594864	271.051910	153.469070	606.459595	5.237712	168.181168	499.092102	65.988983	151.001175	300.738800	14.287264	110.062889	78.248566	96.102036	60.886356	57.808464	148.345001	266.723541	39.996510	140.041916
214	2.13000000	164.646927	1459.442993	387.518677	163.306076	1482.469727	-11.737809	69.213448	1558.167236	186.086105	229.937546	1457.590454	184.316910	111.361771	1147.933594	483.857727	148.635147	1144.522949	-115.870270	158.685989	871.579163	491.976517	212.447556	885.066376	-95.792503	211.528076	994.393127	306.398193	217.554520	996.759705	78.395508	-3.712123	1024.314453	183.293625	0.487748	1343.996094	169.254059	277.730774	1260.483032	181.871887	206.151016	611.060730	414.093689	212.579315	515.382996	362.860779	105.561378	356.159821	431.523071	-48.371140	169.067215	309.113037	-84.193192	182.239838	260.496552	69.702385	67.893280	271.397614	157.638062	606.709229	5.449170	170.370941	499.075195	66.308548	151.952240	300.822815	14.495793	110.102203	78.376404	96.278458	61.020630	58.018654	148.397186	266.789581	39.923615	140.110474
215	2.14000000	173.814957	1460.015503	387.967377	174.199234	1484.502075	-11.251597	79.159279	1559.068115	186.277466	239.983856	1458.726074	184.845474	117.642929	1148.461548	483.246063	164.021942	1146.885254	-116.889030	162.021194	871.676422	491.581665	232.697464	888.872314	-95.844204	222.395386	995.994751	305.566620	227.600662	997.459106	77.562454	6.678506	1025.395264	183.620712	10.826175	1344.743896	168.754181	287.924316	1261.625366	181.605286	223.233215	613.862549	413.419464	231.144089	518.293640	362.022400	129.273392	355.500732	430.818085	-16.350260	161.376465	308.664520	-52.776531	172.513611	259.997101	106.836441	66.063652	271.776917	161.718506	606.951172	5.684840	172.431122	499.076447	66.658806	152.818665	300.925568	14.721107	110.118256	78.525009	96.446640	61.192108	58.261490	148.429962	266.865723	39.845402	140.192261
216	2.15000000	182.981735	1460.411255	388.446167	185.079712	1486.343872	-10.675334	89.054161	1559.780029	186.514801	249.992523	1459.713135	185.393936	123.966675	1148.828735	482.667816	179.171646	1149.135864	-117.963661	165.471741	871.642090	491.163086	252.887886	892.724518	-95.852489	233.225800	997.390747	304.785065	237.645187	997.962585	76.818565	17.058661	1026.262573	183.989029	21.136253	1345.296143	168.301926	298.138855	1262.637207	181.381241	239.813065	616.512268	412.618469	249.064850	521.031372	361.043427	152.925873	354.474487	430.040588	16.468830	153.213760	308.249023	-20.404942	162.191666	259.543945	144.596603	64.226028	272.253113	165.749969	607.179565	5.918988	174.407303	499.095734	67.013908	153.652496	301.040558	14.950844	110.114769	78.696594	96.600990	61.387203	58.535912	148.451492	266.952698	39.760113	140.282013
217	2.16000000	192.159973	1460.600952	388.962708	195.943787	1487.955933	-10.016812	98.914078	1560.280640	186.801071	259.974731	1460.520874	185.962753	130.355347	1149.003052	482.131927	194.099594	1151.234863	-119.086273	169.060257	871.444336	490.720215	272.992630	896.580750	-95.811729	244.022690	998.542847	304.063263	247.689407	998.241943	76.167221	27.435501	1026.896973	184.380661	31.423985	1345.639160	167.895935	308.378632	1263.491089	181.210526	255.858124	618.955444	411.699585	266.329956	523.523621	359.943298	176.522400	353.052368	429.207916	50.038929	144.738388	307.884827	12.877666	151.462814	259.137146	182.874008	62.492241	272.880737	169.770355	607.384094	6.130651	176.341385	499.131775	67.352249	154.484924	301.167908	15.173620	110.099457	78.892548	96.743713	61.577114	58.837318	148.484100	267.052002	39.668556	140.372437
218	2.17000000	201.362579	1460.557129	389.524231	206.783356	1489.308350	-9.287310	108.756271	1560.552734	187.140106	269.941833	1461.121094	186.554306	136.832397	1148.958008	481.646484	208.832275	1153.154053	-120.241203	172.808823	871.056702	490.255798	292.986389	900.402557	-95.714745	254.792816	999.416748	303.407074	257.731018	998.278198	75.612251	37.816116	1027.285645	184.778900	41.694084	1345.763062	167.540543	318.642822	1264.158081	181.099625	271.355591	621.132935	410.671967	282.930237	525.696838	358.738220	200.057632	351.219635	428.344269	84.301445	136.112366	307.590851	47.013577	140.528320	258.777527	221.563263	60.970348	273.702332	173.814484	607.551025	6.305481	178.272568	499.180878	67.658638	155.328415	301.312714	15.378215	110.082581	79.112297	96.883308	61.726543	59.160053	148.557846	267.166107	39.575733	140.454742
